<?xml version="1.0" encoding="UTF-8"?>
<svg width="160px" height="26px" viewBox="0 0 160 26" version="1.1" xmlns="http://www.w3.org/2000/svg" xmlns:xlink="http://www.w3.org/1999/xlink">
    <!-- Generator: Sketch 55.2 (78181) - https://sketchapp.com -->
    <title>logo</title>
    <desc>Created with Sketch.</desc>
    <defs>
        <polygon id="path-1" points="0 0.03055 16.1295698 0.03055 16.1295698 20.5416611 0 20.5416611"></polygon>
        <polygon id="path-3" points="0.0314383438 0.000924444444 9.70714671 0.000924444444 9.70714671 14.6194244 0.0314383438 14.6194244"></polygon>
        <polygon id="path-5" points="0 25.8555556 159.914167 25.8555556 159.914167 0.0481 0 0.0481"></polygon>
        <path d="M0.0374437444,2.48747778 L0.0374437444,9.22162222 C0.0374437444,10.3478556 0.947758776,11.2610333 2.07049505,11.2610333 L2.07049505,11.2610333 C3.19337534,11.2610333 4.10369037,10.3478556 4.10369037,9.22162222 L4.10369037,9.22162222 L4.10369037,0.126677778 L0.0374437444,2.48747778 Z" id="path-7"></path>
        <linearGradient x1="49.99936%" y1="99.9992855%" x2="49.99936%" y2="-0.000694307509%" id="linearGradient-9">
            <stop stop-color="#A19EF6" offset="0%"></stop>
            <stop stop-color="#838CF4" offset="100%"></stop>
        </linearGradient>
        <path d="M9.55074707,0.367177778 L1.07938794,5.27265556 L0.0629342934,9.39351111 C0.69170117,9.75765556 1.46693069,9.75765556 2.0959856,9.39351111 L2.0959856,9.39351111 L8.53429343,5.66525556 L7.38721872,6.32941111 L10.4108011,4.57484444 C11.0764356,4.1886 11.8788839,4.11955556 12.6005401,4.38605556 L12.6005401,4.38605556 L12.6005401,2.18096667 C12.6005401,1.61734444 12.3918632,1.06455556 11.9876148,0.672966667 L11.9876148,0.672966667 C11.5892709,0.286866667 11.0784518,0.0938888889 10.5673447,0.0938888889 L10.5673447,0.0938888889 C10.2163816,0.0938888889 9.86527453,0.185033333 9.55074707,0.367177778" id="path-10"></path>
        <linearGradient x1="-2.20328988%" y1="74.5633607%" x2="99.6709922%" y2="29.5211113%" id="linearGradient-12">
            <stop stop-color="#838CF4" offset="0%"></stop>
            <stop stop-color="#6975E8" offset="100%"></stop>
        </linearGradient>
        <path d="M0.105130513,4.79858889 L6.54358236,8.52684444 C7.17234923,8.89113333 7.94757876,8.89113333 8.57663366,8.52684444 L8.57663366,8.52684444 L13.1055986,5.90416667 C11.4394959,6.05857778 9.76691269,5.68937778 8.31942394,4.84784444 L8.31942394,4.84784444 L7.560036,4.40598889 L0.105130513,0.0891222222 L0.105130513,4.79858889 Z" id="path-13"></path>
        <linearGradient x1="0.149537177%" y1="35.3311036%" x2="73.7911709%" y2="63.9046202%" id="linearGradient-15">
            <stop stop-color="#A19EF6" offset="0%"></stop>
            <stop stop-color="#838CF4" offset="100%"></stop>
        </linearGradient>
        <path d="M0.684644464,0.672533333 C0.280108011,1.06426667 0.0712871287,1.6172 0.0712871287,2.18125556 L0.0712871287,2.18125556 L0.0712871287,9.7136 L2.10448245,10.8287111 L4.13753375,11.9435333 L4.13753375,5.66525556 L4.13753375,3.54047778 C4.13753375,2.66745556 4.79121512,1.93338889 5.65616562,1.83531111 L5.65616562,1.83531111 L3.12093609,0.367177778 C2.80640864,0.185033333 2.45530153,0.0938888889 2.10433843,0.0938888889 L2.10433843,0.0938888889 C1.59351935,0.0938888889 1.0829883,0.286722222 0.684644464,0.672533333" id="path-16"></path>
        <linearGradient x1="50.0003399%" y1="99.9997452%" x2="50.0003399%" y2="0.000457603979%" id="linearGradient-18">
            <stop stop-color="#A19EF6" offset="0%"></stop>
            <stop stop-color="#C6D6FF" offset="100%"></stop>
        </linearGradient>
        <path d="M0.0712871287,4.88843333 C0.0712871287,5.61686667 0.458685869,6.29026667 1.08788479,6.65441111 L1.08788479,6.65441111 L9.99978398,11.5708667 C10.319928,11.7564778 10.6694509,11.8444444 11.0143654,11.8444444 L11.0143654,11.8444444 C11.7171557,11.8444444 12.4006481,11.4785667 12.7769577,10.8245222 L12.7769577,10.8245222 C13.3384698,9.84908889 13.0053645,8.60195556 12.0329793,8.03891111 L12.0329793,8.03891111 L8.26988299,5.97624444 L8.27463546,5.97884444 L8.26988299,5.97624444 L4.13753375,3.71106667 L4.13753375,3.7102 L2.90549055,3.03463333 C1.67085509,2.35747778 0.679459946,1.30852222 0.0712871287,0.0359666667 L0.0712871287,0.0359666667 L0.0712871287,4.88843333 Z" id="path-19"></path>
        <linearGradient x1="-10.0288626%" y1="24.4601046%" x2="99.2832431%" y2="82.0535229%" id="linearGradient-21">
            <stop stop-color="#C6D6FF" offset="0%"></stop>
            <stop stop-color="#B3C6FF" offset="100%"></stop>
        </linearGradient>
        <path d="M1.05548155,1.7602 L0.326480648,2.17822222 C0.315391539,2.18443333 0.305742574,2.1918 0.295085509,2.19858889 L0.295085509,2.19858889 C0.278811881,2.20884444 0.262826283,2.21938889 0.248136814,2.2308 L0.248136814,2.2308 C0.195283528,2.27225556 0.152511251,2.32093333 0.118811881,2.37423333 L0.118811881,2.37423333 C0.106858686,2.39315556 0.0962016202,2.41251111 0.0866966697,2.4323 L0.0866966697,2.4323 C0.0735913591,2.4596 0.0626462646,2.48776667 0.0540054005,2.51636667 L0.0540054005,2.51636667 C0.0374437444,2.57197778 0.0283708371,2.62975556 0.028513163,2.68753333 L0.028513163,2.68753333 C0.0288028803,2.71671111 0.0316831683,2.74545556 0.0361476148,2.7742 L0.0361476148,2.7742 C0.0421962196,2.8132 0.0522772277,2.85147778 0.0661026103,2.88845556 L0.0661026103,2.88845556 C0.0858325833,2.94161111 0.112619262,2.99231111 0.148046805,3.03824444 L0.148046805,3.03824444 C0.163888389,3.05875556 0.181314131,3.0784 0.200180018,3.09674444 L0.200180018,3.09674444 C0.238055806,3.13357778 0.282124212,3.16636667 0.332385239,3.19337778 L0.332385239,3.19337778 L1.77036904,4.03924444 L3.20806481,4.88511111 C3.22808281,4.89594444 3.24925293,4.90374444 3.26955896,4.91327778 L3.26955896,4.91327778 C3.32471647,4.93884444 3.38131413,4.96036667 3.43877588,4.97668889 L3.43877588,4.97668889 C3.50012601,4.99402222 3.56205221,5.00832222 3.62484248,5.0154 L3.62484248,5.0154 C3.76856886,5.03143333 3.91459946,5.02031111 4.0550135,4.98188889 L4.0550135,4.98188889 C4.14862286,4.95632222 4.23963996,4.91891111 4.32590459,4.86922222 L4.32590459,4.86922222 L6.48784878,3.53701111 L7.8450405,2.70082222 L8.70019802,3.23468889 L3.88853285,0.134477778 L1.05548155,1.7602 Z" id="path-22"></path>
        <linearGradient x1="0.000776438016%" y1="49.9987237%" x2="99.9994088%" y2="49.9987237%" id="linearGradient-24">
            <stop stop-color="#A19EF6" offset="0%"></stop>
            <stop stop-color="#838CF4" offset="100%"></stop>
        </linearGradient>
        <path d="M4.10441044,0.3185 L0.111179118,2.60953333 C1.62405041,2.75123333 3.0810441,3.25491111 4.35931593,4.07867778 L4.35931593,4.07867778 L5.96392439,5.11246667 L8.61508551,6.76736667 C8.82808281,6.89158889 9.07146715,6.94156667 9.30923492,6.91787778 L9.30923492,6.91787778 C9.31816382,6.91672222 9.32709271,6.91513333 9.3360216,6.91397778 L9.3360216,6.91397778 C9.47283528,6.89693333 9.60734473,6.85634444 9.73278128,6.7899 L9.73278128,6.7899 L12.6182538,5.11477778 C12.6686589,5.08791111 12.7128713,5.05555556 12.7510351,5.01886667 L12.7510351,5.01886667 C12.7889109,4.98203333 12.8208821,4.94115556 12.8463726,4.89724444 L12.8463726,4.89724444 C12.8846805,4.83137778 12.9091629,4.75915556 12.9193879,4.68505556 L12.9193879,4.68505556 C12.9227003,4.66035556 12.9247165,4.63551111 12.9249002,4.61052222 L12.9249002,4.61052222 C12.9271647,4.41147778 12.8290909,4.21127778 12.629775,4.09947778 L12.629775,4.09947778 L8.52018002,1.70993333 L6.13746175,0.324277778 C5.82336634,0.141266667 5.47269127,0.0492555556 5.12172817,0.0482444444 L5.12172817,0.0482444444 C5.11942394,0.0482444444 5.11711971,0.0482444444 5.1149595,0.0482444444 L5.1149595,0.0482444444 C4.76615662,0.0482444444 4.41735374,0.138377778 4.10441044,0.3185" id="path-25"></path>
        <linearGradient x1="0.00055240065%" y1="49.9986259%" x2="100.000112%" y2="49.9986259%" id="linearGradient-27">
            <stop stop-color="#838CF4" offset="0%"></stop>
            <stop stop-color="#6975E8" offset="100%"></stop>
        </linearGradient>
    </defs>
    <g id="Symbol" stroke="none" stroke-width="1" fill="none" fill-rule="evenodd">
        <g id="nav/header_w_line" transform="translate(-36.000000, -18.000000)">
            <g id="logo" transform="translate(36.000000, 18.000000)">
                <g id="Group-41">
                    <g id="Group-19" transform="translate(0.000000, 0.096344)">
                        <g id="Group-3" transform="translate(0.000000, 3.033333)">
                            <mask id="mask-2" fill="white">
                                <use xlink:href="#path-1"></use>
                            </mask>
                            <g id="Clip-2"></g>
                            <path d="M11.8546463,12.7968389 C11.8546463,15.0514722 10.1953123,16.7517278 7.99477228,16.7517278 C5.79437624,16.7517278 4.1350423,15.0514722 4.1350423,12.7968389 C4.1350423,10.5419167 5.79437624,8.84151667 7.99477228,8.84151667 C10.1953123,8.84151667 11.8546463,10.5419167 11.8546463,12.7968389 M7.57943474,5.06747222 C3.11686049,5.06747222 -4.32043204e-05,8.24568333 -4.32043204e-05,12.7964056 C-4.32043204e-05,17.3565167 3.11686049,20.5416611 7.57943474,20.5416611 C9.20377318,20.5416611 10.6974905,20.0043278 11.8995788,18.9877278 L12.352216,18.6046611 L12.9696058,20.0225278 L16.1295698,20.0225278 L16.1295698,0.03055 L12.3209649,0.03055 L12.3209649,6.48750556 L11.6449613,6.13419444 C11.3710459,5.99105 11.0910819,5.85888333 10.8037732,5.74462778 C9.76571737,5.33108333 8.68186499,5.06747222 7.57943474,5.06747222" id="Fill-1" fill="#0D0B3A" mask="url(#mask-2)"></path>
                        </g>
                        <path d="M23.7021206,9.55614111 L23.2332097,10.1001189 L22.1752799,7.90831889 L19.1865491,7.90831889 L19.1865491,23.2861633 L23.8494473,23.2861633 L23.8494473,15.4579967 C23.8494473,13.1192967 24.8939838,12.0298967 27.1368641,12.0298967 L28.8415626,12.0298967 L28.8415626,7.83060778 L27.8282772,7.83060778 C26.0033267,7.83060778 24.7309595,8.36274111 23.7021206,9.55614111" id="Fill-4" fill="#0D0B3A"></path>
                        <path d="M34.2260306,14.3304344 L34.3834383,13.76609 C34.8654545,12.0349233 36.0877048,11.0814456 37.8245185,11.0814456 C39.6038164,11.0814456 40.8688389,12.0317456 41.3871467,13.7572789 L41.5592439,14.3304344 L34.2260306,14.3304344 Z M37.8246625,7.83057889 C33.2869127,7.83057889 29.9935914,11.0755233 29.9935914,15.5462233 C29.9935914,19.9587122 33.1377138,23.5750233 37.9686769,23.5750233 C41.4083168,23.5750233 44.149919,21.78319 45.3210441,18.7758567 L40.9659046,18.7758567 C40.3394419,19.6903344 39.2492529,20.21409 37.9686769,20.21409 C36.0656706,20.21409 34.6638344,19.1388456 34.2829163,17.1862456 L34.179514,16.6562789 L45.6361476,16.6562789 C45.6731593,16.3182789 45.6911611,15.7166678 45.6911611,15.4130456 L45.6911611,15.3466011 C45.6587579,10.9917456 42.350315,7.83057889 37.8246625,7.83057889 L37.8246625,7.83057889 Z" id="Fill-6" fill="#0D0B3A"></path>
                        <path d="M102.681246,8.20847444 C101.301156,8.20847444 99.933739,8.69871889 98.8311647,9.58907444 L98.1015878,10.1784078 L98.1015878,3.06394111 L93.6675284,3.06394111 L93.6675284,23.2861633 L98.1015878,23.2861633 L98.1015878,15.4490411 C98.1015878,13.23543 99.2767453,11.8603189 101.168518,11.8603189 C102.805098,11.8603189 103.635053,12.92083 103.635053,15.0120967 L103.635053,23.2861633 L108.068968,23.2861633 L108.068968,14.3912744 C108.068968,10.63543 105.954117,8.20847444 102.681246,8.20847444" id="Fill-8" fill="#0D0B3A"></path>
                        <path d="M132.53196,15.4697689 C132.53196,13.2122467 134.06989,11.5736689 136.188774,11.5736689 C137.65268,11.5736689 138.921591,12.3720133 139.510466,13.65988 L143.87151,13.65988 C143.12494,10.0279689 140.124256,7.68609111 136.205624,7.68609111 C131.425354,7.68609111 128.086956,10.8801911 128.086956,15.4533022 C128.086956,19.9920356 131.494481,23.2860911 136.18935,23.2860911 L136.286416,23.2860911 C140.180565,23.2459356 143.17232,20.8351578 143.92854,17.1366578 L139.534661,17.1366578 C138.957451,18.5542356 137.70971,19.3988022 136.188774,19.3988022 C134.06989,19.3988022 132.53196,17.7466467 132.53196,15.4697689" id="Fill-10" fill="#0D0B3A"></path>
                        <g id="Group-14" transform="translate(150.207021, 8.666667)">
                            <mask id="mask-4" fill="white">
                                <use xlink:href="#path-3"></use>
                            </mask>
                            <g id="Clip-13"></g>
                            <polygon id="Fill-12" fill="#0D0B3A" mask="url(#mask-4)" points="4.68612781 6.94754667 4.70917012 6.91244667 9.22013321 0.000924444444 4.31154635 0.000924444444 0.0314383438 7.05270222 0.0399351935 7.06743556 4.50452565 14.6194244 9.70718992 14.6194244"></polygon>
                        </g>
                        <mask id="mask-6" fill="white">
                            <use xlink:href="#path-5"></use>
                        </mask>
                        <g id="Clip-16"></g>
                        <polygon id="Fill-15" fill="#0D0B3A" mask="url(#mask-6)" points="145.800756 23.2861778 150.238416 23.2861778 150.238416 3.06395556 145.800756 3.06395556"></polygon>
                        <path d="M55.4832763,19.7850467 C53.2681908,19.7850467 51.5977678,18.0847911 51.5977678,15.8301578 C51.5977678,13.5752356 53.2681908,11.8748356 55.4832763,11.8748356 C57.6983618,11.8748356 59.3687849,13.5752356 59.3687849,15.8301578 C59.3687849,18.0847911 57.6983618,19.7850467 55.4832763,19.7850467 L55.4832763,19.7850467 Z M60.2390639,8.29319111 L59.5871107,9.73012444 L59.2522772,9.46824667 C58.9594959,9.23930222 58.6409361,9.04459111 58.3007741,8.89480222 C58.2083168,8.85406889 58.1149955,8.81506889 58.0209541,8.77780222 C56.9758416,8.36454667 55.8849325,8.10079111 54.7751575,8.10079111 C50.2829163,8.10079111 47.1452745,11.2790022 47.1452745,15.8297244 C47.1452745,20.3898356 50.2829163,23.57498 54.7751575,23.57498 C56.0469487,23.57498 57.2392439,23.24998 58.2755716,22.62728 C58.7778938,22.3253911 59.2037444,21.91098 59.5477948,21.4356133 L59.5482268,21.4350356 L60.1032583,23.0207467 L63.4376238,23.0207467 L63.4376238,8.29348 L60.2390639,8.29319111 Z" id="Fill-17" fill="#0D0B3A" mask="url(#mask-6)"></path>
                        <path d="M118.269825,19.7850467 C116.05474,19.7850467 114.384317,18.0847911 114.384317,15.8301578 C114.384317,13.5752356 116.05474,11.8748356 118.269825,11.8748356 C120.484911,11.8748356 122.155334,13.5752356 122.155334,15.8301578 C122.155334,18.0847911 120.484911,19.7850467 118.269825,19.7850467 L118.269825,19.7850467 Z M123.025613,8.29319111 L122.37366,9.73012444 L122.038826,9.46824667 C121.746045,9.23930222 121.427485,9.04459111 121.087323,8.89480222 C120.994866,8.85406889 120.901545,8.81506889 120.807503,8.77780222 C119.762535,8.36454667 118.671482,8.10079111 117.561707,8.10079111 C113.069465,8.10079111 109.931824,11.2790022 109.931824,15.8297244 C109.931824,20.3898356 113.069465,23.57498 117.561707,23.57498 C118.833498,23.57498 120.025793,23.24998 121.062121,22.62728 C121.564443,22.3253911 121.990293,21.91098 122.334344,21.4356133 L122.334776,21.4350356 L122.889807,23.0207467 L126.224173,23.0207467 L126.224173,8.29348 L123.025613,8.29319111 Z" id="Fill-18" fill="#0D0B3A" mask="url(#mask-6)"></path>
                    </g>
                    <g id="Group-22" transform="translate(85.976598, 9.051900)">
                        <mask id="mask-8" fill="white">
                            <use xlink:href="#path-7"></use>
                        </mask>
                        <g id="Clip-21"></g>
                        <path d="M0.0374437444,2.48747778 L0.0374437444,9.22162222 C0.0374437444,10.3478556 0.947758776,11.2610333 2.07049505,11.2610333 L2.07049505,11.2610333 C3.19337534,11.2610333 4.10369037,10.3478556 4.10369037,9.22162222 L4.10369037,9.22162222 L4.10369037,0.126677778 L0.0374437444,2.48747778 Z" id="Fill-20" fill="url(#linearGradient-9)" mask="url(#mask-8)"></path>
                    </g>
                    <g id="Group-25" transform="translate(77.479748, 5.874122)">
                        <mask id="mask-11" fill="white">
                            <use xlink:href="#path-10"></use>
                        </mask>
                        <g id="Clip-24"></g>
                        <path d="M9.55074707,0.367177778 L1.07938794,5.27265556 L0.0629342934,9.39351111 C0.69170117,9.75765556 1.46693069,9.75765556 2.0959856,9.39351111 L2.0959856,9.39351111 L8.53429343,5.66525556 L7.38721872,6.32941111 L10.4108011,4.57484444 C11.0764356,4.1886 11.8788839,4.11955556 12.6005401,4.38605556 L12.6005401,4.38605556 L12.6005401,2.18096667 C12.6005401,1.61734444 12.3918632,1.06455556 11.9876148,0.672966667 L11.9876148,0.672966667 C11.5892709,0.286866667 11.0784518,0.0938888889 10.5673447,0.0938888889 L10.5673447,0.0938888889 C10.2163816,0.0938888889 9.86527453,0.185033333 9.55074707,0.367177778" id="Fill-23" fill="url(#linearGradient-12)" mask="url(#mask-11)"></path>
                    </g>
                    <g id="Group-28" transform="translate(70.999100, 6.740789)">
                        <mask id="mask-14" fill="white">
                            <use xlink:href="#path-13"></use>
                        </mask>
                        <g id="Clip-27"></g>
                        <path d="M0.105130513,4.79858889 L6.54358236,8.52684444 C7.17234923,8.89113333 7.94757876,8.89113333 8.57663366,8.52684444 L8.57663366,8.52684444 L13.1055986,5.90416667 C11.4394959,6.05857778 9.76691269,5.68937778 8.31942394,4.84784444 L8.31942394,4.84784444 L7.560036,4.40598889 L0.105130513,0.0891222222 L0.105130513,4.79858889 Z" id="Fill-26" fill="url(#linearGradient-15)" mask="url(#mask-14)"></path>
                    </g>
                    <g id="Group-31" transform="translate(66.966697, 5.874122)">
                        <mask id="mask-17" fill="white">
                            <use xlink:href="#path-16"></use>
                        </mask>
                        <g id="Clip-30"></g>
                        <path d="M0.684644464,0.672533333 C0.280108011,1.06426667 0.0712871287,1.6172 0.0712871287,2.18125556 L0.0712871287,2.18125556 L0.0712871287,9.7136 L2.10448245,10.8287111 L4.13753375,11.9435333 L4.13753375,5.66525556 L4.13753375,3.54047778 C4.13753375,2.66745556 4.79121512,1.93338889 5.65616562,1.83531111 L5.65616562,1.83531111 L3.12093609,0.367177778 C2.80640864,0.185033333 2.45530153,0.0938888889 2.10433843,0.0938888889 L2.10433843,0.0938888889 C1.59351935,0.0938888889 1.0829883,0.286722222 0.684644464,0.672533333" id="Fill-29" fill="url(#linearGradient-18)" mask="url(#mask-17)"></path>
                    </g>
                    <g id="Group-34" transform="translate(66.966697, 14.107456)">
                        <mask id="mask-20" fill="white">
                            <use xlink:href="#path-19"></use>
                        </mask>
                        <g id="Clip-33"></g>
                        <path d="M0.0712871287,4.88843333 C0.0712871287,5.61686667 0.458685869,6.29026667 1.08788479,6.65441111 L1.08788479,6.65441111 L9.99978398,11.5708667 C10.319928,11.7564778 10.6694509,11.8444444 11.0143654,11.8444444 L11.0143654,11.8444444 C11.7171557,11.8444444 12.4006481,11.4785667 12.7769577,10.8245222 L12.7769577,10.8245222 C13.3384698,9.84908889 13.0053645,8.60195556 12.0329793,8.03891111 L12.0329793,8.03891111 L8.26988299,5.97624444 L8.27463546,5.97884444 L8.26988299,5.97624444 L4.13753375,3.71106667 L4.13753375,3.7102 L2.90549055,3.03463333 C1.67085509,2.35747778 0.679459946,1.30852222 0.0712871287,0.0359666667 L0.0712871287,0.0359666667 L0.0712871287,4.88843333 Z" id="Fill-32" fill="url(#linearGradient-21)" mask="url(#mask-20)"></path>
                    </g>
                    <g id="Group-37" transform="translate(70.711071, 1.974122)">
                        <mask id="mask-23" fill="white">
                            <use xlink:href="#path-22"></use>
                        </mask>
                        <g id="Clip-36"></g>
                        <path d="M1.05548155,1.7602 L0.326480648,2.17822222 C0.315391539,2.18443333 0.305742574,2.1918 0.295085509,2.19858889 L0.295085509,2.19858889 C0.278811881,2.20884444 0.262826283,2.21938889 0.248136814,2.2308 L0.248136814,2.2308 C0.195283528,2.27225556 0.152511251,2.32093333 0.118811881,2.37423333 L0.118811881,2.37423333 C0.106858686,2.39315556 0.0962016202,2.41251111 0.0866966697,2.4323 L0.0866966697,2.4323 C0.0735913591,2.4596 0.0626462646,2.48776667 0.0540054005,2.51636667 L0.0540054005,2.51636667 C0.0374437444,2.57197778 0.0283708371,2.62975556 0.028513163,2.68753333 L0.028513163,2.68753333 C0.0288028803,2.71671111 0.0316831683,2.74545556 0.0361476148,2.7742 L0.0361476148,2.7742 C0.0421962196,2.8132 0.0522772277,2.85147778 0.0661026103,2.88845556 L0.0661026103,2.88845556 C0.0858325833,2.94161111 0.112619262,2.99231111 0.148046805,3.03824444 L0.148046805,3.03824444 C0.163888389,3.05875556 0.181314131,3.0784 0.200180018,3.09674444 L0.200180018,3.09674444 C0.238055806,3.13357778 0.282124212,3.16636667 0.332385239,3.19337778 L0.332385239,3.19337778 L1.77036904,4.03924444 L3.20806481,4.88511111 C3.22808281,4.89594444 3.24925293,4.90374444 3.26955896,4.91327778 L3.26955896,4.91327778 C3.32471647,4.93884444 3.38131413,4.96036667 3.43877588,4.97668889 L3.43877588,4.97668889 C3.50012601,4.99402222 3.56205221,5.00832222 3.62484248,5.0154 L3.62484248,5.0154 C3.76856886,5.03143333 3.91459946,5.02031111 4.0550135,4.98188889 L4.0550135,4.98188889 C4.14862286,4.95632222 4.23963996,4.91891111 4.32590459,4.86922222 L4.32590459,4.86922222 L6.48784878,3.53701111 L7.8450405,2.70082222 L8.70019802,3.23468889 L3.88853285,0.134477778 L1.05548155,1.7602 Z" id="Fill-35" fill="url(#linearGradient-24)" mask="url(#mask-23)"></path>
                    </g>
                    <g id="Group-40" transform="translate(73.447345, 0.096344)">
                        <mask id="mask-26" fill="white">
                            <use xlink:href="#path-25"></use>
                        </mask>
                        <g id="Clip-39"></g>
                        <path d="M4.10441044,0.3185 L0.111179118,2.60953333 C1.62405041,2.75123333 3.0810441,3.25491111 4.35931593,4.07867778 L4.35931593,4.07867778 L5.96392439,5.11246667 L8.61508551,6.76736667 C8.82808281,6.89158889 9.07146715,6.94156667 9.30923492,6.91787778 L9.30923492,6.91787778 C9.31816382,6.91672222 9.32709271,6.91513333 9.3360216,6.91397778 L9.3360216,6.91397778 C9.47283528,6.89693333 9.60734473,6.85634444 9.73278128,6.7899 L9.73278128,6.7899 L12.6182538,5.11477778 C12.6686589,5.08791111 12.7128713,5.05555556 12.7510351,5.01886667 L12.7510351,5.01886667 C12.7889109,4.98203333 12.8208821,4.94115556 12.8463726,4.89724444 L12.8463726,4.89724444 C12.8846805,4.83137778 12.9091629,4.75915556 12.9193879,4.68505556 L12.9193879,4.68505556 C12.9227003,4.66035556 12.9247165,4.63551111 12.9249002,4.61052222 L12.9249002,4.61052222 C12.9271647,4.41147778 12.8290909,4.21127778 12.629775,4.09947778 L12.629775,4.09947778 L8.52018002,1.70993333 L6.13746175,0.324277778 C5.82336634,0.141266667 5.47269127,0.0492555556 5.12172817,0.0482444444 L5.12172817,0.0482444444 C5.11942394,0.0482444444 5.11711971,0.0482444444 5.1149595,0.0482444444 L5.1149595,0.0482444444 C4.76615662,0.0482444444 4.41735374,0.138377778 4.10441044,0.3185" id="Fill-38" fill="url(#linearGradient-27)" mask="url(#mask-26)"></path>
                    </g>
                </g>
            </g>
        </g>
    </g>
</svg>